<?xml version="1.0" encoding="UTF-8" standalone="no"?>
<!-- Created with Inkscape (http://www.inkscape.org/) -->

<svg
   width="105.37768mm"
   height="95.000549mm"
   viewBox="0 0 105.37768 95.00055"
   version="1.1"
   id="svg1"
   xml:space="preserve"
   inkscape:version="1.4.3 (0d15f75, 2025-12-25)"
   sodipodi:docname="icon.svg"
   xmlns:inkscape="http://www.inkscape.org/namespaces/inkscape"
   xmlns:sodipodi="http://sodipodi.sourceforge.net/DTD/sodipodi-0.dtd"
   xmlns="http://www.w3.org/2000/svg"
   xmlns:svg="http://www.w3.org/2000/svg"><sodipodi:namedview
     id="namedview1"
     pagecolor="#ffffff"
     bordercolor="#000000"
     borderopacity="0.25"
     inkscape:showpageshadow="2"
     inkscape:pageopacity="0.0"
     inkscape:pagecheckerboard="0"
     inkscape:deskcolor="#d1d1d1"
     inkscape:document-units="mm"
     inkscape:zoom="0.71891835"
     inkscape:cx="-200.30091"
     inkscape:cy="312.27468"
     inkscape:window-width="2560"
     inkscape:window-height="1009"
     inkscape:window-x="1912"
     inkscape:window-y="138"
     inkscape:window-maximized="1"
     inkscape:current-layer="layer1" /><defs
     id="defs1" /><g
     inkscape:label="Layer 1"
     inkscape:groupmode="layer"
     id="layer1"
     transform="translate(-56.485262,-30.138147)"><g
       id="g134"
       transform="translate(4.9193388,-35.39214)"><path
         style="display:inline;fill:#000000"
         d="m 92.662524,75.971796 c 0,-0.03423 0.02801,-0.06224 0.06224,-0.06224 0.03423,0 0.06224,0.02801 0.06224,0.06224 0,0.03423 -0.02801,0.06224 -0.06224,0.06224 -0.03423,0 -0.06224,-0.02801 -0.06224,-0.06224 z"
         id="path133" /><path
         style="display:inline;fill:#000000"
         d="m 103.9903,77.963494 c 0,-0.03423 0.028,-0.06224 0.0622,-0.06224 0.0342,0 0.0622,0.02801 0.0622,0.06224 0,0.03423 -0.028,0.06224 -0.0622,0.06224 -0.0342,0 -0.0622,-0.02801 -0.0622,-0.06224 z"
         id="path132" /><path
         style="display:inline;fill:#000000"
         d="m 83.824366,84.187549 c 0,-0.03423 0.02801,-0.06224 0.06224,-0.06224 0.03423,0 0.06224,0.02801 0.06224,0.06224 0,0.03423 -0.02801,0.06224 -0.06224,0.06224 -0.03423,0 -0.06224,-0.02801 -0.06224,-0.06224 z"
         id="path131" /><path
         style="display:inline;fill:#000000"
         d="m 82.579555,84.996676 c 0,-0.09129 0.03735,-0.12863 0.08299,-0.08299 0.04564,0.04564 0.04564,0.120331 0,0.165974 -0.04564,0.04564 -0.08299,0.0083 -0.08299,-0.08299 z"
         id="path130" /><path
         style="display:inline;fill:#000000"
         d="m 129.38445,88.917831 c 0,-0.03423 0.028,-0.06224 0.0622,-0.06224 0.0342,0 0.0622,0.02801 0.0622,0.06224 0,0.03423 -0.028,0.06224 -0.0622,0.06224 -0.0342,0 -0.0622,-0.02801 -0.0622,-0.06224 z"
         id="path129" /><path
         style="display:inline;fill:#000000"
         d="m 118.30563,91.282972 c 0,-0.03423 0.028,-0.06224 0.0622,-0.06224 0.0342,0 0.0622,0.02801 0.0622,0.06224 0,0.03423 -0.028,0.06224 -0.0622,0.06224 -0.0342,0 -0.0622,-0.02801 -0.0622,-0.06224 z"
         id="path128" /><path
         style="display:inline;fill:#000000"
         d="m 121.54214,94.270518 c 0,-0.03423 0.028,-0.06224 0.0622,-0.06224 0.0342,0 0.0622,0.02801 0.0622,0.06224 0,0.03423 -0.028,0.06224 -0.0622,0.06224 -0.0342,0 -0.0622,-0.02801 -0.0622,-0.06224 z"
         id="path127" /><path
         style="display:inline;fill:#000000"
         d="m 63.78291,102.85971 c 0,-0.0342 0.02801,-0.0622 0.06224,-0.0622 0.03423,0 0.06224,0.028 0.06224,0.0622 0,0.0342 -0.02801,0.0622 -0.06224,0.0622 -0.03423,0 -0.06224,-0.028 -0.06224,-0.0622 z"
         id="path126" /><path
         style="display:inline;fill:#000000"
         d="m 61.915694,104.60245 c 0,-0.0342 0.02801,-0.0622 0.06224,-0.0622 0.03423,0 0.06224,0.028 0.06224,0.0622 0,0.0342 -0.02801,0.0622 -0.06224,0.0622 -0.03423,0 -0.06224,-0.028 -0.06224,-0.0622 z"
         id="path125" /><path
         style="display:inline;fill:#000000"
         d="m 61.293288,105.22486 c 0,-0.0342 0.02801,-0.0623 0.06224,-0.0623 0.03423,0 0.06224,0.028 0.06224,0.0623 0,0.0342 -0.02801,0.0622 -0.06224,0.0622 -0.03423,0 -0.06224,-0.028 -0.06224,-0.0622 z"
         id="path124" /><path
         style="display:inline;fill:#000000"
         d="m 133.36784,105.34934 c 0,-0.0342 0.028,-0.0622 0.0622,-0.0622 0.0342,0 0.0622,0.028 0.0622,0.0622 0,0.0342 -0.028,0.0622 -0.0622,0.0622 -0.0342,0 -0.0622,-0.028 -0.0622,-0.0622 z"
         id="path123" /><path
         style="display:inline;fill:#000000"
         d="m 70.131446,109.70617 c 0,-0.0342 0.02801,-0.0622 0.06224,-0.0622 0.03423,0 0.06224,0.028 0.06224,0.0622 0,0.0342 -0.02801,0.0623 -0.06224,0.0623 -0.03423,0 -0.06224,-0.028 -0.06224,-0.0623 z"
         id="path122" /><path
         style="display:inline;fill:#000000"
         d="m 65.899089,113.93853 c 0,-0.0812 0.12448,-0.0812 0.12448,0 0,0.0342 -0.02801,0.0622 -0.06224,0.0622 -0.03423,0 -0.06224,-0.028 -0.06224,-0.0622 z"
         id="path121" /><path
         style="display:inline;fill:#000000"
         d="m 102.62101,67.009157 c 0,-0.03423 -0.028,-0.06224 -0.0622,-0.06224 -0.0342,0 -0.0622,0.02801 -0.0622,0.06224 0,0.03423 0.028,0.06224 0.0622,0.06224 0.0342,0 0.0622,-0.02801 0.0622,-0.06224 z"
         id="path120" /><path
         style="display:inline;fill:#2d6ea4;fill-opacity:1"
         d="m 70.532393,139.80036 -0.15588,-30.52986 -5.665495,5.35289 H 51.565923 l 1.347096,-1.28485 17.14824,-15.91966 0.365493,-0.312075 0.0079,-9.260338 0.008,-9.260338 h 4.419078 4.419079 l 0.03253,5.086679 0.216471,4.934019 0.10384,-0.282269 0.04242,-0.05389 23.69189,-22.176728 0.0841,-0.100053 0.37564,-0.189737 0.29152,-0.273863 37.86867,35.465013 -4.78771,7.11002 -32.98589,-30.314362 -24.870168,23.115362 -0.160137,41.312 c -3.068267,0.10071 -6.866827,-1.19457 -8.651592,-2.41796 z"
         id="path119"
         sodipodi:nodetypes="ccccccccccccccccccccccccc" /><path
         style="display:inline;fill:#e69f38;fill-opacity:1"
         d="m 78.59616,158.78396 c -0.03423,-0.0336 -0.633574,-0.0961 -1.331872,-0.13895 -4.641387,-0.28463 -9.622793,-1.68202 -12.919556,-3.62421 -4.160174,-2.45084 -6.765429,-5.59656 -8.079137,-9.75518 -0.507328,-1.60598 -0.711549,-3.01573 -0.716336,-4.94491 -0.0058,-2.32086 0.228472,-3.88284 0.933267,-6.22354 1.022114,-3.39455 3.230365,-7.34953 6.107366,-10.9383 0.875229,-1.09176 5.168828,-5.57285 5.017822,-5.23694 -0.03078,0.0685 -0.379288,0.67782 -0.774466,1.35413 -0.755584,1.29311 -2.24768,4.3537 -2.58658,5.30561 -0.890651,2.50166 -1.247659,4.44654 -1.256756,6.84646 -0.0069,1.81478 0.08731,2.50939 0.565496,4.17011 1.505229,5.22766 6.54394,8.74713 13.546979,9.46238 8.094147,0.8267 17.459376,-1.44988 28.449923,-6.91583 7.92158,-3.93966 15.82673,-9.26553 21.71596,-14.63053 7.66476,-6.98246 13.14108,-13.72373 17.53604,-21.58658 1.16501,-2.084264 2.42256,-4.812754 2.30549,-5.002173 -0.0517,-0.08361 -0.0323,-0.107488 0.0472,-0.05831 0.16313,0.100824 0.32953,-0.357287 0.20372,-0.560858 -0.0511,-0.08263 -0.0356,-0.111516 0.036,-0.06726 0.14624,0.09038 0.4482,-0.500416 0.34287,-0.670837 -0.0391,-0.06333 -0.0178,-0.115153 0.0473,-0.115153 0.29742,0 2.59143,-7.037224 2.57674,-7.90455 -0.002,-0.13693 0.0372,-0.279912 0.0878,-0.317739 0.0506,-0.03783 0.10664,-0.345918 0.12448,-0.684646 0.0178,-0.338728 0.0706,-0.644803 0.11723,-0.680166 0.0997,-0.07559 0.52097,-2.870996 0.58593,-3.887979 0.0687,-1.075855 0.77974,1.593939 1.33436,5.010365 0.26633,1.640615 0.32993,7.012972 0.1083,9.149361 -0.30862,2.974942 -1.39574,8.017835 -2.33464,10.829855 l -0.41563,1.24481 c 2.59518,2.07647 4.53785,4.28946 6.829,6.41072 l -4.77655,0.002 -4.77656,0.002 -0.55414,1.14936 c -1.75393,3.63787 -5.57444,9.50426 -8.60784,13.21733 -4.20348,5.14534 -9.65608,10.40615 -14.73839,14.21998 -4.50739,3.38241 -8.72961,5.99984 -13.28869,8.23787 -3.6102,1.77224 -6.20357,2.82603 -10.611677,4.31196 -2.087499,0.70368 -7.146169,1.93076 -9.211601,2.23446 -0.273858,0.0403 -0.806015,0.12441 -1.18257,0.18699 -0.677255,0.11255 -1.164923,0.16947 -2.738584,0.31964 -0.44502,0.0425 -0.977177,0.10215 -1.18257,0.13263 -0.567261,0.0842 -6.464086,0.21625 -6.535258,0.14638 z"
         id="path118" /><path
         style="display:inline;fill:#84b9a9;fill-opacity:1"
         d="m 100.25587,160.42364 c -1.785073,-0.11079 -3.842473,-0.35567 -4.089945,-0.4868 -0.100715,-0.0534 0.127462,-0.14772 0.565751,-0.23395 1.713362,-0.33709 7.311064,-2.25724 10.488794,-3.59793 3.38892,-1.42979 9.11052,-4.44717 12.20549,-6.43676 9.7249,-6.25162 19.07221,-15.31231 25.36643,-24.58861 l 0.54902,-0.80913 -0.0839,0.56017 c -0.17957,1.19959 -0.8104,3.7468 -1.31022,5.29045 -2.29918,7.10086 -5.97071,13.00836 -11.21798,18.04976 -6.06223,5.82438 -13.0672,9.63216 -20.95898,11.39294 -2.04647,0.4566 -4.04984,0.71832 -6.65974,0.87002 -2.25999,0.13137 -2.58523,0.13069 -4.85476,-0.0102 z"
         id="path117" /><path
         style="fill:#ca8727;fill-opacity:1;stroke:none;stroke-width:0.264583;stroke-opacity:1"
         d="m 151.17735,81.590863 c 5.64393,37.160407 -58.95933,89.660677 -92.935093,67.679597 7.354983,10.62811 25.165429,11.80816 41.921693,6.14561 29.35681,-9.92073 59.43172,-41.59415 51.0134,-73.825207 z"
         id="path5"
         sodipodi:nodetypes="ccsc" /><path
         style="opacity:1;fill:#2d6ea4;fill-opacity:1;stroke:none;stroke-width:0.264583;stroke-opacity:1"
         d="m 150.00218,108.11487 -2.73636,6.45546 9.67778,0.054 z"
         id="path134"
         sodipodi:nodetypes="cccc" /></g><text
       xml:space="preserve"
       style="font-size:12.7px;font-family:'MesloLGM Nerd Font';-inkscape-font-specification:'MesloLGM Nerd Font';writing-mode:lr-tb;direction:ltr;opacity:1;fill:#ffffff;fill-opacity:1;stroke:none;stroke-width:0.264583;stroke-opacity:1"
       x="246.57993"
       y="110.77695"
       id="text134"><tspan
         sodipodi:role="line"
         id="tspan134"
         style="stroke-width:0.264583"
         x="246.57993"
         y="110.77695" /></text></g></svg>
